<?xml version="1.0" encoding="utf-8"?>
<!-- Generator: Adobe Illustrator 17.0.0, SVG Export Plug-In . SVG Version: 6.00 Build 0)  -->
<!DOCTYPE svg PUBLIC "-//W3C//DTD SVG 1.1//EN" "http://www.w3.org/Graphics/SVG/1.1/DTD/svg11.dtd">
<svg version="1.1" xmlns="http://www.w3.org/2000/svg" xmlns:xlink="http://www.w3.org/1999/xlink" x="0px" y="0px"
	 width="5016.479px" height="999.96px" viewBox="0.12 0.04 5016.479 999.96" enable-background="new 0.12 0.04 5016.479 999.96"
	 xml:space="preserve">
<g id="Emblem">
	<g>
		<g>
			<g>
				<rect id="SVGID_5_" x="0.12" y="0.04" fill="#F4A205" width="999.878" height="999.96"/>
			</g>
		</g>
		<g>
			<g>
				
					<linearGradient id="SVGID_1_" gradientUnits="userSpaceOnUse" x1="683.7595" y1="795.4055" x2="1210.946" y2="1322.592" gradientTransform="matrix(1 0 0 1 -311.54 -559)">
					<stop  offset="0" style="stop-color:#BBBBBB"/>
					<stop  offset="0.4519" style="stop-color:#FFFFFF"/>
				</linearGradient>
				<polygon id="SVGID_7_" fill="url(#SVGID_1_)" points="408.624,200.001 590.377,200.001 862.999,799.999 681.251,799.999 				"/>
			</g>
		</g>
		<g>
			<g>
				<polygon id="SVGID_10_" fill="#FFFFFF" points="590.377,200.001 408.624,200.001 135.998,799.999 317.75,799.999 				"/>
			</g>
		</g>
	</g>
</g>
<g id="Tekst">
	<path fill="#FFFFFF" d="M1393.689,658.5V510.009h-150.187V658.5h-42.619V332.087h42.619v145.11h150.187v-145.11h42.284V658.5
		H1393.689L1393.689,658.5z M1717.16,623.325c-25.823,29.99-59.14,44.987-99.955,44.987s-74.137-14.998-99.954-44.987
		c-25.823-29.99-38.729-72.728-38.729-128.2c0-55.249,12.906-97.869,38.729-127.864c25.818-29.99,59.139-44.987,99.954-44.987
		s74.132,14.998,99.955,44.987c25.817,29.995,38.729,72.615,38.729,127.864C1755.889,550.597,1742.977,593.335,1717.16,623.325
		L1717.16,623.325z M1686.888,393.307c-16.693-25.704-39.916-38.561-69.683-38.561c-29.545,0-52.713,12.857-69.51,38.561
		c-16.802,25.709-25.2,59.649-25.2,101.818c0,42.397,8.398,76.391,25.2,101.981c16.797,25.595,39.965,38.393,69.51,38.393
		c29.768,0,52.99-12.798,69.683-38.393c16.683-25.59,25.032-59.584,25.032-101.981
		C1711.92,452.956,1703.571,419.016,1686.888,393.307L1686.888,393.307z M2015.257,618.416
		c-8.794,15.453-21.478,27.627-38.052,36.535c-16.574,8.902-37.38,13.361-62.407,13.361c-23.233,0-44.543-3.554-63.935-10.658
		c-19.397-7.103-33.825-18.205-43.297-33.316c-9.471-15.106-14.206-40.701-14.206-76.786V332.087h42.62v209.716
		c0,30.672,2.991,51.245,8.967,61.729c5.971,10.49,15.274,18.438,27.904,23.851c12.629,5.413,26.722,8.116,42.283,8.116
		c14.884,0,28.126-2.704,39.742-8.116c11.617-5.413,20.243-14.039,25.877-25.877c5.635-11.839,8.458-36.703,8.458-74.587V332.087
		h39.239v205.994C2028.451,576.192,2024.051,602.974,2015.257,618.416L2015.257,618.416z M2237.419,385.527
		c0-5.407-2.145-10.706-6.426-15.897c-4.286-5.185-10.712-8.962-19.283-11.329c-8.571-2.368-17.923-3.554-28.072-3.554
		c-20.974,0-36.481,5.245-46.51,15.729c-10.04,10.49-15.052,22.383-15.052,35.69c0,9.021,2.368,17.479,7.103,25.368
		c4.736,7.894,11.27,14.434,19.619,19.619c8.338,5.191,22.431,12.175,42.278,20.968l19.96,8.458
		c32.016,13.984,53.445,28.641,64.265,43.974c10.598,15.339,15.897,31.799,15.897,49.387c0,16.461-4.34,32.363-13.02,47.691
		c-8.685,15.339-20.752,26.95-36.193,34.844c-15.447,7.889-36.025,11.839-61.735,11.839c-24.349,0-44.705-2.877-61.052-8.626
		c-16.353-5.749-28.754-15.333-37.207-28.754c-8.458-13.41-12.684-28.017-12.684-43.801V585.1h42.278v2.032
		c0,18.042,6.426,30.613,19.283,37.716c12.852,7.103,29.876,10.652,51.077,10.652c18.487,0,33.994-5.413,46.51-16.238
		c12.516-10.82,18.774-25.027,18.774-42.619c0-14.206-5.413-25.926-16.238-35.175c-10.826-9.021-27.178-17.929-49.046-26.723
		l-17.251-7.103c-23.006-9.471-40.252-18.888-51.755-28.245c-11.503-9.357-20.074-19.733-25.709-31.122
		c-5.64-11.384-8.452-24.068-8.452-38.052c0-24.804,8.734-45.664,26.213-62.58c17.474-16.91,44.819-25.368,82.026-25.368
		c34.048,0,58.012,6.318,71.878,18.942c13.87,12.63,20.805,27.4,20.805,44.31v2.032h-42.283V385.527L2237.419,385.527z
		 M2526.219,622.648V658.5h-196.192V332.087h184.689v35.852h-142.064v102.832h124.136v32.807h-124.136v119.07H2526.219
		L2526.219,622.648z M3322.583,658.5l-33.826-89.974h-144.096l-36.865,89.974h-39.58l133.948-326.413h42.961L3368.589,658.5
		H3322.583L3322.583,658.5z M3219.08,384.177l-61.561,151.877h118.729L3219.08,384.177L3219.08,384.177z M3637.77,658.5V464.003
		l1.013-58.516h-1.013l-21.31,58.516l-57.845,145.451h-42.619l-62.916-146.128l-19.283-52.768h-1.014l1.014,52.768V658.5h-36.194
		V332.087h41.948l101.135,233.058l93.361-233.058h41.265V658.5H3637.77L3637.77,658.5z M3876.165,486.668
		c25.704,6.318,44.364,16.97,55.98,31.967c11.611,14.998,17.419,31.854,17.419,50.568c0,15.561-4.004,30.223-12.007,43.974
		c-8.008,13.757-19.396,24.75-34.167,32.98c-14.77,8.23-40.198,12.343-76.277,12.343h-98.091V332.087h86.929
		c39.461,0,65.961,2.818,79.491,8.452c13.529,5.64,23.731,13.984,30.613,25.032c6.875,11.053,10.316,23.341,10.316,36.871
		c0,15.111-4.345,30.049-13.019,44.819C3914.666,462.031,3898.938,475.165,3876.165,486.668L3876.165,486.668z M3771.642,626.029
		h59.871c28.413,0,47.864-5.294,58.348-15.897c10.485-10.598,15.729-23.114,15.729-37.548c0-11.72-3.381-22.491-10.148-32.303
		c-6.762-9.807-16.802-17.869-30.103-24.187c-13.307-6.307-34.053-9.471-62.239-9.471h-31.458V626.029L3771.642,626.029z
		 M3879.545,377.919c-9.698-8.68-27.285-13.025-52.767-13.025h-55.135v108.922h40.929c20.974,0,36.703-2.763,47.187-8.29
		c10.484-5.521,18.828-13.529,25.032-24.013c6.198-10.49,9.303-21.255,9.303-32.303
		C3894.093,397.029,3889.239,386.599,3879.545,377.919L3879.545,377.919z M3995.153,658.5V332.087h42.619V658.5H3995.153
		L3995.153,658.5z M4220.701,364.894V658.5h-42.284V364.894h-111.284v-32.807h262.826v32.807H4220.701L4220.701,364.894z
		 M4359.31,658.5V332.087h42.619V658.5H4359.31L4359.31,658.5z M4683.116,623.325c-25.824,29.99-59.14,44.987-99.955,44.987
		c-40.815,0-74.137-14.998-99.955-44.987c-25.823-29.99-38.729-72.728-38.729-128.2c0-55.249,12.907-97.869,38.729-127.864
		c25.818-29.99,59.14-44.987,99.955-44.987c40.815,0,74.131,14.998,99.955,44.987c25.817,29.995,38.734,72.615,38.734,127.864
		C4721.851,550.597,4708.934,593.335,4683.116,623.325L4683.116,623.325z M4652.844,393.307
		c-16.693-25.704-39.915-38.561-69.682-38.561c-29.546,0-52.714,12.857-69.511,38.561c-16.801,25.709-25.2,59.649-25.2,101.818
		c0,42.397,8.398,76.391,25.2,101.981c16.797,25.595,39.965,38.393,69.511,38.393c29.767,0,52.989-12.798,69.682-38.393
		c16.684-25.59,25.032-59.584,25.032-101.981C4677.876,452.956,4669.527,419.016,4652.844,393.307L4652.844,393.307z
		 M4965.652,658.5l-149.504-233.058l-13.534-26.381l0.677,26.381V658.5h-39.238V332.087h42.283l149.173,232.039l13.529,25.709
		l-0.677-25.709V332.087h39.238V658.5H4965.652L4965.652,658.5z"/>
	<path fill="#F4A205" d="M2807.509,594.712c-17.636,16.91-38.957,25.357-63.94,25.357c-24.989,0-46.303-8.447-63.94-25.357
		c-17.641-16.899-26.462-42.164-26.462-75.789c0-33.257,8.821-58.381,26.462-75.378c17.636-16.997,38.951-25.498,63.94-25.498
		c24.983,0,46.304,8.501,63.94,25.498c17.642,16.997,26.457,42.121,26.457,75.378
		C2833.966,552.547,2825.151,577.812,2807.509,594.712L2807.509,594.712z M2785.045,465.038
		c-10.381-13.686-24.208-20.53-41.476-20.53c-17.273,0-31.1,6.843-41.481,20.53c-10.381,13.692-15.572,31.653-15.572,53.884
		c0,22.42,5.191,40.468,15.572,54.155c10.381,13.692,24.208,20.535,41.481,20.535c17.268,0,31.095-6.843,41.476-20.535
		c10.381-13.686,15.572-31.734,15.572-54.155C2800.617,496.691,2795.427,478.73,2785.045,465.038L2785.045,465.038z
		 M2954.624,364.856c-10.289,0-19.012,2.525-26.18,7.58c-7.169,5.055-10.75,17.046-10.75,35.966v14.884h55.948v26.733h-55.948
		v164.816h-31.967V450.019h-27.839v-26.733h27.839v-8.821c0-27.741,5.873-47.404,17.636-58.982
		c11.758-11.573,27.01-17.36,45.751-17.36c7.168,0,16.168,0.824,27.01,2.476v25.91
		C2967.302,365.409,2960.139,364.856,2954.624,364.856L2954.624,364.856z"/>
</g>
</svg>
